<svg width="136" height="80" viewBox="0 0 136 80" fill="none" xmlns="http://www.w3.org/2000/svg">
<path d="M58.4082 52.1616C55.144 51.9151 53.5118 53.2213 53.5118 56.0799V56.3118H58.4082V62.0246H53.5118V79.3547H47.5547V62.0246H44.2275V56.3118H47.5513V56.0833C47.5513 52.8281 48.4594 50.3548 50.2756 48.6633C52.0919 46.9719 54.8016 46.2337 58.4049 46.4487L58.4082 52.1616Z" fill="#1C1463"/>
<path d="M77.8089 56.3119H83.766V79.3581H77.8089V76.6395C76.0128 78.8798 73.5029 80 70.279 80C67.2011 80 64.561 78.825 62.3586 76.4749C60.1562 74.1247 59.0517 71.2437 59.0449 67.8317C59.0449 64.4219 60.1461 61.5419 62.3485 59.1918C64.5508 56.8417 67.191 55.6656 70.2689 55.6633C73.5018 55.6633 76.0117 56.7835 77.7988 59.0238L77.8089 56.3119ZM66.8172 72.5162C67.4125 73.1168 68.1256 73.5883 68.912 73.9011C69.6983 74.2139 70.5409 74.3614 71.387 74.3342C72.2369 74.3603 73.0832 74.2124 73.8738 73.8998C74.6643 73.5871 75.3824 73.1162 75.9836 72.5162C77.1574 71.2393 77.8086 69.5695 77.8086 67.8367C77.8086 66.1039 77.1574 64.4342 75.9836 63.1572C75.3825 62.5567 74.6646 62.0854 73.8741 61.7721C73.0835 61.4589 72.2371 61.3104 71.387 61.3358C70.5406 61.3091 69.6979 61.4571 68.9115 61.7705C68.1252 62.0839 67.4122 62.556 66.8172 63.1572C65.6139 64.3737 65.0133 65.933 65.0156 67.835C65.0178 69.7371 65.6184 71.2963 66.8172 72.5128V72.5162Z" fill="#1C1463"/>
<path d="M104.365 56.3118H110.925L102.149 79.3547H95.3598L86.584 56.3118H93.1406L98.7408 72.4421L104.365 56.3118Z" fill="#1C1463"/>
<path d="M128.985 56.3118H135.542L126.766 79.3547H119.977L111.201 56.3118H117.761L123.365 72.4421L128.985 56.3118Z" fill="#1C1463"/>
<path d="M45.2076 35.1709C41.7565 35.1786 38.3801 34.1685 35.5024 32.2675L38.3244 29.4514C38.4514 29.3243 38.6023 29.2234 38.7684 29.1546C38.9345 29.0858 39.1127 29.0504 39.2925 29.0504C39.4724 29.0504 39.6505 29.0858 39.8167 29.1546C39.9828 29.2234 40.1337 29.3243 40.2607 29.4514L40.7052 29.895C40.9622 30.1509 41.3104 30.2946 41.6734 30.2946C42.0364 30.2946 42.3846 30.1509 42.6415 29.895L56.472 16.0934C56.71 15.8335 56.8384 15.492 56.8304 15.14C56.8225 14.7881 56.6788 14.4527 56.4293 14.2037C56.1799 13.9548 55.8438 13.8114 55.4911 13.8035C55.1384 13.7956 54.7962 13.9237 54.5357 14.1611L46.0865 22.5926C45.8214 22.8563 45.4624 23.0044 45.0881 23.0044C44.7137 23.0044 44.3547 22.8563 44.0896 22.5926C43.9603 22.4673 43.8574 22.3174 43.7872 22.1517C43.717 21.9861 43.6808 21.808 43.6808 21.6281C43.6808 21.4483 43.717 21.2702 43.7872 21.1046C43.8574 20.9389 43.9603 20.789 44.0896 20.6637L52.5691 12.202C52.8245 11.9457 52.9678 11.5989 52.9678 11.2375C52.9678 10.8761 52.8245 10.5293 52.5691 10.273L52.5387 10.2394C52.2814 9.98436 51.9333 9.84121 51.5706 9.84121C51.2078 9.84121 50.8598 9.98436 50.6024 10.2394L42.1533 18.6743C42.0229 18.806 41.8677 18.9105 41.6966 18.9819C41.5255 19.0532 41.3419 19.09 41.1565 19.09C40.971 19.09 40.7874 19.0532 40.6163 18.9819C40.4452 18.9105 40.29 18.806 40.1597 18.6743C39.9034 18.4184 39.7595 18.0715 39.7595 17.7098C39.7595 17.3481 39.9034 17.0012 40.1597 16.7454L48.6391 8.28028C48.8771 8.02036 49.0055 7.67887 48.9975 7.32689C48.9896 6.97491 48.8459 6.63955 48.5964 6.3906C48.347 6.14165 48.0109 5.99829 47.6582 5.99035C47.3055 5.98242 46.9633 6.11052 46.7028 6.34799L32.8723 20.1495C32.6159 20.4059 32.4719 20.7534 32.4719 21.1157C32.4719 21.4779 32.6159 21.8254 32.8723 22.0818L33.2865 22.4952C33.4139 22.6219 33.515 22.7725 33.5839 22.9383C33.6529 23.1041 33.6884 23.2818 33.6884 23.4613C33.6884 23.6408 33.6529 23.8185 33.5839 23.9843C33.515 24.1501 33.4139 24.3007 33.2865 24.4274L30.4713 27.2368C28.3185 23.9647 27.3213 20.0694 27.6374 16.1679C27.9536 12.2664 29.5652 8.58164 32.2169 5.69729C34.8686 2.81295 38.4088 0.893885 42.2768 0.244056C46.1449 -0.405773 50.1196 0.250778 53.5715 2.10972C57.0234 3.96867 59.7552 6.92374 61.3341 10.5069C62.913 14.0901 63.2488 18.0965 62.2883 21.8916C61.3278 25.6867 59.1259 29.0535 56.0314 31.4589C52.937 33.8642 49.1267 35.1705 45.2042 35.1709H45.2076Z" fill="#206FB7"/>
<path d="M18.0819 62.2432C15.3363 62.2433 12.6286 61.6032 10.1749 60.3739C7.72112 59.1446 5.58913 57.3602 3.94895 55.1629C2.30877 52.9657 1.20578 50.4164 0.72793 47.7183C0.25008 45.0203 0.410599 42.2481 1.19668 39.6229C1.98276 36.9977 3.37266 34.5922 5.25554 32.5981C7.13841 30.6039 9.46217 29.0765 12.0415 28.1374C14.6208 27.1983 17.3843 26.8737 20.1117 27.1894C22.839 27.505 25.4547 28.4523 27.7501 29.9556L9.17141 48.4988C9.04208 48.6241 8.93927 48.774 8.86906 48.9396C8.79885 49.1053 8.76267 49.2833 8.76267 49.4632C8.76267 49.6431 8.79885 49.8211 8.86906 49.9868C8.93927 50.1525 9.04208 50.3024 9.17141 50.4277L12.2695 53.5227C12.5269 53.7778 12.875 53.9209 13.2377 53.9209C13.6005 53.9209 13.9485 53.7778 14.2059 53.5227L32.7779 34.9728C34.5306 37.6236 35.5313 40.6987 35.6736 43.8714C35.8159 47.0441 35.0945 50.1961 33.5861 52.9926C32.0777 55.7891 29.8385 58.1258 27.1063 59.7545C24.3742 61.3833 21.251 62.2432 18.0685 62.2432H18.0819Z" fill="#29ABE3"/>
</svg>
